<svg width="559" height="378" viewBox="0 0 559 378" fill="none" xmlns="http://www.w3.org/2000/svg">
<g clip-path="url(#clip0)">
<path d="M402.624 220.041C402.624 231.936 392.966 241.581 381.055 241.581H21.5691C9.65758 241.581 0 231.936 0 220.041V42.3365C0 30.4411 9.65758 20.7966 21.5691 20.7966H381.055C392.966 20.7966 402.624 30.4411 402.624 42.3365V220.041Z" fill="#106AE7"/>
<path d="M235.463 61.1839C235.463 65.6445 231.841 69.2614 227.375 69.2614H38.6447C34.1781 69.2614 30.5563 65.6445 30.5563 61.1839C30.5563 56.7233 34.1781 53.1064 38.6447 53.1064H227.375C231.841 53.1064 235.463 56.7233 235.463 61.1839Z" fill="#81B1F3"/>
<path d="M273.209 88.1087C273.209 92.5693 269.587 96.1862 265.121 96.1862H76.3907C71.9241 96.1862 68.3022 92.5693 68.3022 88.1087C68.3022 83.6482 71.9241 80.0312 76.3907 80.0312H265.121C269.587 80.0312 273.209 83.6482 273.209 88.1087Z" fill="#5697F0"/>
<path d="M177.345 115.034C177.345 119.494 174.911 123.111 171.906 123.111H44.9824C41.9771 123.111 39.5434 119.494 39.5434 115.034C39.5434 110.573 41.9771 106.956 44.9824 106.956H171.906C174.911 106.956 177.345 110.573 177.345 115.034Z" fill="#5697F0"/>
<path d="M559 254.146V378H86.2766L87.0099 148.2L559 81.5554V254.146Z" fill="#FFBB4A"/>
<path d="M370.27 1.50049C370.27 1.50049 481.711 33.8103 559 79.5826C559 142.856 559 254.146 559 254.146L364.428 198.95L408.016 94.3913L354.093 14.5142L370.27 1.50049Z" fill="#FFAB1F"/>
<path d="M370.27 1.50049C361.732 11.3729 428.687 79.1339 428.687 79.1339C443.965 96.1863 441.269 110.546 422.845 123.111C404.421 135.676 405.32 157.665 400.377 181.897C395.434 206.129 364.428 198.949 364.428 198.949C198.316 140.761 87.0099 148.2 87.0099 148.2C87.0099 148.2 335.22 1.94924 370.27 1.50049Z" fill="#FFCB73"/>
<path d="M269.334 237.237C269.334 237.237 250.56 275.194 254.827 302.61H265.067C265.067 302.61 260.516 278.712 271.324 240.574C268.978 237.675 269.334 237.237 269.334 237.237Z" fill="#5E5951"/>
<path d="M269.539 239.893C269.539 239.893 269.249 255.914 279.293 267.834C281.736 252.442 273.982 238.658 273.982 238.658L269.539 239.893Z" fill="#185B05"/>
<path d="M270.071 235.905C270.071 235.905 257.704 242.089 252.441 258.416C265.155 254.948 272.72 240.477 272.72 240.477L270.071 235.905Z" fill="#185B05"/>
<path d="M269.492 240.617C269.492 240.617 282.773 252.074 299.297 250.703C287.937 237.601 271.327 235.471 271.327 235.471L269.492 240.617Z" fill="#185B05"/>
<path d="M272.697 237.854C272.697 237.854 264.632 226.503 251.293 226.863C257.494 239.631 270.159 242.525 270.159 242.525L272.697 237.854Z" fill="#185B05"/>
<path d="M269.557 240.667C269.557 240.667 282.644 241.503 292.733 229.45C280.232 225.97 268.697 235.144 268.697 235.144L269.557 240.667Z" fill="#185B05"/>
<path d="M275.752 240.924C275.752 240.924 275.253 227.346 264.802 219.098C263.16 232.532 271.451 242.769 271.451 242.769L275.752 240.924Z" fill="#185B05"/>
<path d="M247.446 311.585C247.446 311.585 310.957 338.51 394.237 319.365C477.517 300.217 394.235 296.328 394.235 296.328C394.235 296.328 312.752 296.328 361.283 288.55C409.814 280.772 304.065 281.37 304.065 281.37C304.065 281.37 253.937 279.873 277.654 293.635C301.371 307.397 247.446 301.029 247.446 301.029C247.446 301.029 204.907 297.225 247.446 311.585Z" fill="#2F80ED"/>
</g>
<defs>
<clipPath id="clip0">
<rect width="559" height="378" fill="white"/>
</clipPath>
</defs>
</svg>
