<svg width="98" height="67" viewBox="0 0 98 67" fill="none" xmlns="http://www.w3.org/2000/svg">
<path d="M15.744 21.288C19.52 21.288 22.72 22.648 25.344 25.368C28 28.088 29.328 31.352 29.328 35.16C29.328 38.968 28.016 42.232 25.392 44.952C22.8 47.64 19.584 48.984 15.744 48.984C11.904 48.984 8.672 47.64 6.048 44.952C3.424 42.232 2.112 38.968 2.112 35.16C2.112 31.352 3.424 28.088 6.048 25.368C8.704 22.648 11.936 21.288 15.744 21.288ZM15.744 45.192C18.4 45.192 20.656 44.232 22.512 42.312C24.4 40.36 25.344 38.024 25.344 35.304C25.344 32.552 24.384 30.184 22.464 28.2C20.576 26.184 18.32 25.176 15.696 25.176C13.104 25.176 10.864 26.184 8.976 28.2C7.088 30.184 6.144 32.552 6.144 35.304C6.144 38.056 7.056 40.392 8.88 42.312C10.704 44.232 12.992 45.192 15.744 45.192ZM57.4691 48.12H53.5811V44.28C50.7331 47.416 47.4531 48.984 43.7411 48.984C40.0291 48.984 36.8451 47.624 34.1891 44.904C31.5651 42.152 30.2531 38.888 30.2531 35.112C30.2531 31.304 31.5811 28.056 34.2371 25.368C36.8931 22.648 40.1251 21.288 43.9331 21.288C47.7731 21.288 50.9891 22.84 53.5811 25.944V21.96H57.4691V48.12ZM44.0291 45.288C46.6851 45.288 48.9731 44.328 50.8931 42.408C52.8131 40.488 53.7731 38.104 53.7731 35.256C53.7731 32.376 52.8291 29.976 50.9411 28.056C49.0531 26.104 46.7331 25.128 43.9811 25.128C41.2611 25.128 38.9571 26.136 37.0691 28.152C35.1811 30.136 34.2371 32.488 34.2371 35.208C34.2371 37.928 35.1971 40.296 37.1171 42.312C39.0371 44.296 41.3411 45.288 44.0291 45.288ZM74.4427 25.032L71.8987 27.672C70.0107 25.912 68.2827 25.032 66.7147 25.032C65.7227 25.032 64.8907 25.352 64.2187 25.992C63.5467 26.6 63.2107 27.368 63.2107 28.296C63.2107 29.192 63.5787 29.992 64.3147 30.696C65.0827 31.368 66.4267 32.216 68.3467 33.24C70.2667 34.232 71.7387 35.336 72.7627 36.552C73.8187 37.768 74.3467 39.256 74.3467 41.016C74.3467 43.256 73.5627 45.144 71.9947 46.68C70.4587 48.216 68.5547 48.984 66.2827 48.984C63.1147 48.984 60.4747 47.64 58.3627 44.952L60.8587 42.168C62.5867 44.184 64.3467 45.192 66.1387 45.192C67.3547 45.192 68.3947 44.792 69.2587 43.992C70.1227 43.192 70.5547 42.264 70.5547 41.208C70.5547 40.12 70.1547 39.224 69.3547 38.52C68.5867 37.784 67.2427 36.936 65.3227 35.976C63.4347 35.016 61.9947 33.96 61.0027 32.808C60.0427 31.624 59.5627 30.088 59.5627 28.2C59.5627 26.28 60.2507 24.648 61.6267 23.304C63.0347 21.96 64.8747 21.288 67.1467 21.288C69.4507 21.288 71.8827 22.536 74.4427 25.032ZM77.5481 12.12C78.4121 12.12 79.1321 12.424 79.7081 13.032C80.3161 13.608 80.6201 14.328 80.6201 15.192C80.6201 16.024 80.3161 16.744 79.7081 17.352C79.1321 17.928 78.4121 18.216 77.5481 18.216C76.7161 18.216 75.9961 17.912 75.3881 17.304C74.8121 16.696 74.5241 15.992 74.5241 15.192C74.5241 14.36 74.8121 13.64 75.3881 13.032C75.9961 12.424 76.7161 12.12 77.5481 12.12ZM79.5641 48.12H75.5801V21.96H79.5641V48.12ZM95.9415 25.032L93.3975 27.672C91.5095 25.912 89.7815 25.032 88.2135 25.032C87.2215 25.032 86.3895 25.352 85.7175 25.992C85.0455 26.6 84.7095 27.368 84.7095 28.296C84.7095 29.192 85.0775 29.992 85.8135 30.696C86.5815 31.368 87.9255 32.216 89.8455 33.24C91.7655 34.232 93.2375 35.336 94.2615 36.552C95.3175 37.768 95.8455 39.256 95.8455 41.016C95.8455 43.256 95.0615 45.144 93.4935 46.68C91.9575 48.216 90.0535 48.984 87.7815 48.984C84.6135 48.984 81.9735 47.64 79.8615 44.952L82.3575 42.168C84.0855 44.184 85.8455 45.192 87.6375 45.192C88.8535 45.192 89.8935 44.792 90.7575 43.992C91.6215 43.192 92.0535 42.264 92.0535 41.208C92.0535 40.12 91.6535 39.224 90.8535 38.52C90.0855 37.784 88.7415 36.936 86.8215 35.976C84.9335 35.016 83.4935 33.96 82.5015 32.808C81.5415 31.624 81.0615 30.088 81.0615 28.2C81.0615 26.28 81.7495 24.648 83.1255 23.304C84.5335 21.96 86.3735 21.288 88.6455 21.288C90.9495 21.288 93.3815 22.536 95.9415 25.032Z" fill="white"/>
</svg>
