<svg width="212" height="110" viewBox="0 0 212 110" fill="none" xmlns="http://www.w3.org/2000/svg">
<path d="M34.112 45.624C42.2933 45.624 49.2267 48.5707 54.912 54.464C60.6667 60.3573 63.544 67.4293 63.544 75.68C63.544 83.9307 60.7013 91.0027 55.016 96.896C49.4 102.72 42.432 105.632 34.112 105.632C25.792 105.632 18.7893 102.72 13.104 96.896C7.41867 91.0027 4.576 83.9307 4.576 75.68C4.576 67.4293 7.41867 60.3573 13.104 54.464C18.8587 48.5707 25.8613 45.624 34.112 45.624ZM34.112 97.416C39.8667 97.416 44.7547 95.336 48.776 91.176C52.8667 86.9467 54.912 81.8853 54.912 75.992C54.912 70.0293 52.832 64.8987 48.672 60.6C44.5813 56.232 39.6933 54.048 34.008 54.048C28.392 54.048 23.5387 56.232 19.448 60.6C15.3573 64.8987 13.312 70.0293 13.312 75.992C13.312 81.9547 15.288 87.016 19.24 91.176C23.192 95.336 28.1493 97.416 34.112 97.416ZM124.516 103.76H116.092V95.44C109.922 102.235 102.815 105.632 94.7724 105.632C86.7298 105.632 79.8311 102.685 74.0764 96.792C68.3911 90.8293 65.5484 83.7573 65.5484 75.576C65.5484 67.3253 68.4258 60.288 74.1804 54.464C79.9351 48.5707 86.9378 45.624 95.1884 45.624C103.508 45.624 110.476 48.9867 116.092 55.712V47.08H124.516V103.76ZM95.3964 97.624C101.151 97.624 106.108 95.544 110.268 91.384C114.428 87.224 116.508 82.0587 116.508 75.888C116.508 69.648 114.463 64.448 110.372 60.288C106.282 56.0587 101.255 53.944 95.2924 53.944C89.3991 53.944 84.4071 56.128 80.3164 60.496C76.2258 64.7947 74.1804 69.8907 74.1804 75.784C74.1804 81.6773 76.2604 86.808 80.4204 91.176C84.5804 95.4747 89.5724 97.624 95.3964 97.624ZM161.293 53.736L155.781 59.456C151.69 55.6427 147.946 53.736 144.549 53.736C142.399 53.736 140.597 54.4293 139.141 55.816C137.685 57.1333 136.957 58.7973 136.957 60.808C136.957 62.7493 137.754 64.4827 139.349 66.008C141.013 67.464 143.925 69.3013 148.085 71.52C152.245 73.6693 155.434 76.0613 157.653 78.696C159.941 81.3307 161.085 84.5547 161.085 88.368C161.085 93.2213 159.386 97.312 155.989 100.64C152.661 103.968 148.535 105.632 143.613 105.632C136.749 105.632 131.029 102.72 126.453 96.896L131.861 90.864C135.605 95.232 139.418 97.416 143.301 97.416C145.935 97.416 148.189 96.5493 150.061 94.816C151.933 93.0827 152.869 91.072 152.869 88.784C152.869 86.4267 152.002 84.4853 150.269 82.96C148.605 81.3653 145.693 79.528 141.533 77.448C137.442 75.368 134.322 73.08 132.173 70.584C130.093 68.0187 129.053 64.6907 129.053 60.6C129.053 56.44 130.543 52.904 133.525 49.992C136.575 47.08 140.562 45.624 145.485 45.624C150.477 45.624 155.746 48.328 161.293 53.736ZM168.021 25.76C169.893 25.76 171.453 26.4187 172.701 27.736C174.018 28.984 174.677 30.544 174.677 32.416C174.677 34.2187 174.018 35.7787 172.701 37.096C171.453 38.344 169.893 38.968 168.021 38.968C166.218 38.968 164.658 38.3093 163.341 36.992C162.093 35.6747 161.469 34.1493 161.469 32.416C161.469 30.6133 162.093 29.0533 163.341 27.736C164.658 26.4187 166.218 25.76 168.021 25.76ZM172.389 103.76H163.757V47.08H172.389V103.76ZM207.873 53.736L202.361 59.456C198.271 55.6427 194.527 53.736 191.129 53.736C188.98 53.736 187.177 54.4293 185.721 55.816C184.265 57.1333 183.537 58.7973 183.537 60.808C183.537 62.7493 184.335 64.4827 185.929 66.008C187.593 67.464 190.505 69.3013 194.665 71.52C198.825 73.6693 202.015 76.0613 204.233 78.696C206.521 81.3307 207.665 84.5547 207.665 88.368C207.665 93.2213 205.967 97.312 202.569 100.64C199.241 103.968 195.116 105.632 190.193 105.632C183.329 105.632 177.609 102.72 173.033 96.896L178.441 90.864C182.185 95.232 185.999 97.416 189.881 97.416C192.516 97.416 194.769 96.5493 196.641 94.816C198.513 93.0827 199.449 91.072 199.449 88.784C199.449 86.4267 198.583 84.4853 196.849 82.96C195.185 81.3653 192.273 79.528 188.113 77.448C184.023 75.368 180.903 73.08 178.753 70.584C176.673 68.0187 175.633 64.6907 175.633 60.6C175.633 56.44 177.124 52.904 180.105 49.992C183.156 47.08 187.143 45.624 192.065 45.624C197.057 45.624 202.327 48.328 207.873 53.736Z" fill="#2F80ED"/>
<rect y="21" width="212" height="89" fill="url(#paint0_linear)"/>
<defs>
<linearGradient id="paint0_linear" x1="106" y1="21" x2="106" y2="110" gradientUnits="userSpaceOnUse">
<stop stop-color="white" stop-opacity="0"/>
<stop offset="1" stop-color="white" stop-opacity="0.15"/>
</linearGradient>
</defs>
</svg>
