<svg width="74" height="50" viewBox="0 0 74 50" fill="none" xmlns="http://www.w3.org/2000/svg">
<path d="M11.808 15.716C14.64 15.716 17.04 16.736 19.008 18.776C21 20.816 21.996 23.264 21.996 26.12C21.996 28.976 21.012 31.424 19.044 33.464C17.1 35.48 14.688 36.488 11.808 36.488C8.928 36.488 6.504 35.48 4.536 33.464C2.568 31.424 1.584 28.976 1.584 26.12C1.584 23.264 2.568 20.816 4.536 18.776C6.528 16.736 8.952 15.716 11.808 15.716ZM11.808 33.644C13.8 33.644 15.492 32.924 16.884 31.484C18.3 30.02 19.008 28.268 19.008 26.228C19.008 24.164 18.288 22.388 16.848 20.9C15.432 19.388 13.74 18.632 11.772 18.632C9.828 18.632 8.148 19.388 6.732 20.9C5.316 22.388 4.608 24.164 4.608 26.228C4.608 28.292 5.292 30.044 6.66 31.484C8.028 32.924 9.744 33.644 11.808 33.644ZM43.1018 35.84H40.1858V32.96C38.0498 35.312 35.5898 36.488 32.8058 36.488C30.0218 36.488 27.6338 35.468 25.6418 33.428C23.6738 31.364 22.6898 28.916 22.6898 26.084C22.6898 23.228 23.6858 20.792 25.6778 18.776C27.6698 16.736 30.0938 15.716 32.9498 15.716C35.8298 15.716 38.2418 16.88 40.1858 19.208V16.22H43.1018V35.84ZM33.0218 33.716C35.0138 33.716 36.7298 32.996 38.1698 31.556C39.6098 30.116 40.3298 28.328 40.3298 26.192C40.3298 24.032 39.6218 22.232 38.2058 20.792C36.7898 19.328 35.0498 18.596 32.9858 18.596C30.9458 18.596 29.2178 19.352 27.8018 20.864C26.3858 22.352 25.6778 24.116 25.6778 26.156C25.6778 28.196 26.3978 29.972 27.8378 31.484C29.2778 32.972 31.0058 33.716 33.0218 33.716ZM55.8321 18.524L53.9241 20.504C52.5081 19.184 51.2121 18.524 50.0361 18.524C49.2921 18.524 48.6681 18.764 48.1641 19.244C47.6601 19.7 47.4081 20.276 47.4081 20.972C47.4081 21.644 47.6841 22.244 48.2361 22.772C48.8121 23.276 49.8201 23.912 51.2601 24.68C52.7001 25.424 53.8041 26.252 54.5721 27.164C55.3641 28.076 55.7601 29.192 55.7601 30.512C55.7601 32.192 55.1721 33.608 53.9961 34.76C52.8441 35.912 51.4161 36.488 49.7121 36.488C47.3361 36.488 45.3561 35.48 43.7721 33.464L45.6441 31.376C46.9401 32.888 48.2601 33.644 49.6041 33.644C50.5161 33.644 51.2961 33.344 51.9441 32.744C52.5921 32.144 52.9161 31.448 52.9161 30.656C52.9161 29.84 52.6161 29.168 52.0161 28.64C51.4401 28.088 50.4321 27.452 48.9921 26.732C47.5761 26.012 46.4961 25.22 45.7521 24.356C45.0321 23.468 44.6721 22.316 44.6721 20.9C44.6721 19.46 45.1881 18.236 46.2201 17.228C47.2761 16.22 48.6561 15.716 50.3601 15.716C52.0881 15.716 53.9121 16.652 55.8321 18.524ZM58.1611 8.84C58.8091 8.84 59.3491 9.068 59.7811 9.524C60.2371 9.956 60.4651 10.496 60.4651 11.144C60.4651 11.768 60.2371 12.308 59.7811 12.764C59.3491 13.196 58.8091 13.412 58.1611 13.412C57.5371 13.412 56.9971 13.184 56.5411 12.728C56.1091 12.272 55.8931 11.744 55.8931 11.144C55.8931 10.52 56.1091 9.98 56.5411 9.524C56.9971 9.068 57.5371 8.84 58.1611 8.84ZM59.6731 35.84H56.6851V16.22H59.6731V35.84ZM71.9561 18.524L70.0481 20.504C68.6321 19.184 67.3361 18.524 66.1601 18.524C65.4161 18.524 64.7921 18.764 64.2881 19.244C63.7841 19.7 63.5321 20.276 63.5321 20.972C63.5321 21.644 63.8081 22.244 64.3601 22.772C64.9361 23.276 65.9441 23.912 67.3841 24.68C68.8241 25.424 69.9281 26.252 70.6961 27.164C71.4881 28.076 71.8841 29.192 71.8841 30.512C71.8841 32.192 71.2961 33.608 70.1201 34.76C68.9681 35.912 67.5401 36.488 65.8361 36.488C63.4601 36.488 61.4801 35.48 59.8961 33.464L61.7681 31.376C63.0641 32.888 64.3841 33.644 65.7281 33.644C66.6401 33.644 67.4201 33.344 68.0681 32.744C68.7161 32.144 69.0401 31.448 69.0401 30.656C69.0401 29.84 68.7401 29.168 68.1401 28.64C67.5641 28.088 66.5561 27.452 65.1161 26.732C63.7001 26.012 62.6201 25.22 61.8761 24.356C61.1561 23.468 60.7961 22.316 60.7961 20.9C60.7961 19.46 61.3121 18.236 62.3441 17.228C63.4001 16.22 64.7801 15.716 66.4841 15.716C68.2121 15.716 70.0361 16.652 71.9561 18.524Z" fill="#2F80ED"/>
</svg>
