<svg width="22" height="22" viewBox="0 0 22 22" fill="none" xmlns="http://www.w3.org/2000/svg">
<path d="M8.90631 1.57078C10.1469 0.640008 11.8531 0.640008 13.0937 1.57078L16.1725 3.88065L19.3207 6.09499C20.5893 6.98727 21.1165 8.6099 20.6147 10.0774L19.3693 13.7193L18.2362 17.3978C17.7796 18.88 16.3993 19.8828 14.8485 19.859L11 19.8L7.15148 19.859C5.60069 19.8828 4.22041 18.88 3.76381 17.3978L2.6307 13.7193L1.38529 10.0774C0.883451 8.6099 1.41068 6.98727 2.67927 6.09499L5.82749 3.88065L8.90631 1.57078Z" fill="#007FF5"/>
<path d="M18.2695 12.6657L18.8326 10.9472C19.4633 9.02238 18.3068 6.93752 16.2825 7.00842C12.5743 7.13829 8.2517 8.80344 6.6236 14.289C6.0451 16.2382 7.73667 17.9722 9.76963 17.9396L11.3475 17.9144L14.0438 17.9576C15.6107 17.9826 17.0021 16.9599 17.4457 15.4569L18.2695 12.6657Z" fill="url(#paint0_linear)"/>
<defs>
<linearGradient id="paint0_linear" x1="13.8473" y1="6.3581" x2="12.0704" y2="17.9782" gradientUnits="userSpaceOnUse">
<stop stop-color="white" stop-opacity="0.05"/>
<stop offset="1" stop-color="white" stop-opacity="0"/>
</linearGradient>
</defs>
</svg>
