<svg width="14" height="14" viewBox="0 0 14 14" fill="none" xmlns="http://www.w3.org/2000/svg">
<path d="M4.90631 1.57078C6.14693 0.640008 7.85307 0.640009 9.09369 1.57078L10.2916 2.46951L11.5165 3.33106C12.7851 4.22334 13.3123 5.84597 12.8105 7.3135L12.3259 8.7305L11.885 10.1617C11.4285 11.6439 10.0482 12.6468 8.49738 12.623L7 12.6L5.50261 12.623C3.95183 12.6468 2.57155 11.6439 2.11495 10.1617L1.67408 8.7305L1.18952 7.3135C0.687677 5.84597 1.2149 4.22334 2.48349 3.33106L3.7084 2.46951L4.90631 1.57078Z" fill="#2F80ED"/>
<path d="M11.3748 8.91145L11.6261 8.06006C12.221 6.24433 11.099 4.2466 9.21739 4.57887C7.40637 4.89867 5.56375 5.88883 4.56031 8.15071C3.816 9.82848 5.38599 11.4295 7.22121 11.4001L7.97291 11.4121C9.53982 11.4372 10.9312 10.4145 11.3748 8.91145Z" fill="url(#paint0_linear)"/>
<defs>
<linearGradient id="paint0_linear" x1="8.81198" y1="4.04611" x2="7.6812" y2="11.4407" gradientUnits="userSpaceOnUse">
<stop stop-color="white" stop-opacity="0.05"/>
<stop offset="1" stop-color="white" stop-opacity="0"/>
</linearGradient>
</defs>
</svg>
