<?xml version="1.0" encoding="utf-8"?>
<!-- Generator: Adobe Illustrator 22.1.0, SVG Export Plug-In . SVG Version: 6.00 Build 0)  -->
<svg version="1.1" id="Layer_1" xmlns="http://www.w3.org/2000/svg" xmlns:xlink="http://www.w3.org/1999/xlink" x="0px" y="0px"
	 width="11.7px" height="11.2px" viewBox="0 0 11.7 11.2" style="enable-background:new 0 0 11.7 11.2;" xml:space="preserve">
<style type="text/css">
	.st0{fill:#D2D2D2;}
</style>
<path class="st0" d="M6.2,0.2l1.6,3.2c0,0.1,0.1,0.2,0.2,0.2L11.5,4c0.3,0,0.4,0.4,0.2,0.5L9.1,7.1C9,7.1,9,7.2,9,7.3l0.6,3.5
	c0,0.3-0.2,0.5-0.5,0.3L6,9.5c-0.1,0-0.2,0-0.3,0l-3.1,1.6c-0.2,0.1-0.5-0.1-0.5-0.3l0.6-3.5c0-0.1,0-0.2-0.1-0.3L0.1,4.6
	C-0.1,4.4,0,4.1,0.3,4l3.5-0.5C3.9,3.5,4,3.4,4,3.4l1.6-3.2C5.7-0.1,6-0.1,6.2,0.2z"/>
</svg>
