<svg width="12" height="12" viewBox="0 0 12 12" fill="none" xmlns="http://www.w3.org/2000/svg">
<path d="M0 3.33333C0 1.49238 1.49238 0 3.33333 0H8.66667C10.5076 0 12 1.49238 12 3.33333V8.66667C12 10.5076 10.5076 12 8.66667 12H3.33333C1.49238 12 0 10.5076 0 8.66667V3.33333Z" fill="#3DB033"/>
<path d="M2 4.22222C2 2.99492 2.99492 2 4.22222 2H7.77778C9.00508 2 10 2.99492 10 4.22222V7.77778C10 9.00508 9.00508 10 7.77778 10H4.22222C2.99492 10 2 9.00508 2 7.77778V4.22222Z" fill="url(#paint0_linear)"/>
<defs>
<linearGradient id="paint0_linear" x1="2" y1="2" x2="9.33333" y2="9.33333" gradientUnits="userSpaceOnUse">
<stop stop-color="white" stop-opacity="0.05"/>
<stop offset="1" stop-color="white" stop-opacity="0"/>
</linearGradient>
</defs>
</svg>
