<svg width="18" height="18" viewBox="0 0 18 18" fill="none" xmlns="http://www.w3.org/2000/svg">
<path d="M0 5C0 2.23858 2.23858 0 5 0H13C15.7614 0 18 2.23858 18 5V13C18 15.7614 15.7614 18 13 18H5C2.23858 18 0 15.7614 0 13V5Z" fill="#3DB033"/>
<path d="M3 6.33333C3 4.49238 4.49238 3 6.33333 3H11.6667C13.5076 3 15 4.49238 15 6.33333V11.6667C15 13.5076 13.5076 15 11.6667 15H6.33333C4.49238 15 3 13.5076 3 11.6667V6.33333Z" fill="url(#paint0_linear)"/>
<defs>
<linearGradient id="paint0_linear" x1="3" y1="3" x2="14" y2="14" gradientUnits="userSpaceOnUse">
<stop stop-color="white" stop-opacity="0.05"/>
<stop offset="1" stop-color="white" stop-opacity="0"/>
</linearGradient>
</defs>
</svg>
