<svg width="26" height="26" xmlns="http://www.w3.org/2000/svg">

 <g>
  <title>background</title>
  <rect fill="none" id="canvas_background" height="402" width="582" y="-1" x="-1"/>
 </g>
 <g>
  <title>Layer 1</title>
  <g id="svg_2">
   <path stroke="#fdbc2c" fill="#fdbc2c" stroke-width="2.5" d="m8.853568,9.6875l-4.978593,1.18743l3.660692,4.74996l-0.634522,6.49996l2.098801,-1.18749c-0.073193,-3.74083 -0.073185,-7.50903 -0.146378,-11.24986z" id="svg_3"/>
   <g id="surface1">
    <path d="m13.03125,1.15625c-0.07422,0.00391 -0.14844,0.01172 -0.21875,0.03125c-0.31641,0.0625 -0.58203,0.26953 -0.71875,0.5625l-3.25,6.625l-7.375,1.09375c-0.36328,0.06641 -0.66406,0.32813 -0.77344,0.68359c-0.11328,0.35547 -0.01953,0.74219 0.24219,1.00391l5.28125,5.1875l-1.21875,7.3125c-0.0625,0.37109 0.08594,0.75 0.39063,0.97656c0.30468,0.22266 0.71093,0.25782 1.04687,0.08594l6.5625,-3.46875l6.5625,3.46875c0.33594,0.17188 0.74219,0.13672 1.04688,-0.08594c0.30468,-0.22656 0.45312,-0.60547 0.39062,-0.97656l-1.21875,-7.3125l5.28125,-5.1875c0.26172,-0.26172 0.35547,-0.64844 0.24219,-1.00391c-0.10938,-0.35546 -0.41016,-0.61718 -0.77344,-0.68359l-7.375,-1.09375l-3.25,-6.625c-0.15625,-0.34766 -0.49219,-0.57812 -0.875,-0.59375zm-0.03125,3.3125l2.625,5.28125c0.14844,0.28906 0.42969,0.48828 0.75,0.53125l5.84375,0.875l-4.21875,4.125c-0.24219,0.22266 -0.35937,0.55078 -0.3125,0.875l1,5.84375l-5.21875,-2.75c-0.29297,-0.15625 -0.64453,-0.15625 -0.9375,0l-5.21875,2.75l1,-5.84375c0.04688,-0.32422 -0.07031,-0.65234 -0.3125,-0.875l-4.21875,-4.125l5.84375,-0.875c0.32031,-0.04297 0.60156,-0.24219 0.75,-0.53125l2.625,-5.28125z" fill="#ced4da" id="svg_1"/>
   </g>
  </g>
 </g>
</svg>