<svg width="26" height="26" xmlns="http://www.w3.org/2000/svg">
 <g>
  <title>background</title>
  <rect x="-1" y="-1" width="3.624979" height="3.624979" id="canvas_background" fill="none"/>
 </g>

 <g>
  <title>Layer 1</title>
  <path stroke="#fdbc2c" id="svg_8" d="m12.96875,4.464929l-0.095775,15.04931l-5.611053,2.735539l1.020191,-6.234485l-4.782147,-4.898524l6.503721,-0.954258" fill-opacity="null" stroke-opacity="null" stroke-width="0" fill="#fdbc2c"/>
  <g id="surface1">
   <path d="m13.03125,1.15625c-0.074219,0.003906 -0.148437,0.011719 -0.21875,0.03125c-0.316406,0.0625 -0.582031,0.269531 -0.71875,0.5625l-3.25,6.625l-7.375,1.09375c-0.363281,0.066406 -0.664062,0.328125 -0.773437,0.683594c-0.113282,0.355469 -0.019532,0.742187 0.242187,1.003906l5.28125,5.1875l-1.21875,7.3125c-0.0625,0.371094 0.085938,0.75 0.390625,0.976563c0.304688,0.222656 0.710938,0.257812 1.046875,0.085937l6.5625,-3.46875l6.5625,3.46875c0.335938,0.171875 0.742188,0.136719 1.046875,-0.085937c0.304688,-0.226563 0.453125,-0.605469 0.390625,-0.976563l-1.21875,-7.3125l5.28125,-5.1875c0.261719,-0.261719 0.355469,-0.648437 0.242188,-1.003906c-0.109375,-0.355469 -0.410157,-0.617188 -0.773438,-0.683594l-7.375,-1.09375l-3.25,-6.625c-0.15625,-0.347656 -0.492187,-0.578125 -0.875,-0.59375zm-0.03125,3.3125l2.625,5.28125c0.148438,0.289063 0.429688,0.488281 0.75,0.53125l5.84375,0.875l-4.21875,4.125c-0.242187,0.222656 -0.359375,0.550781 -0.3125,0.875l1,5.84375l-5.21875,-2.75c-0.292969,-0.15625 -0.644531,-0.15625 -0.9375,0l-5.21875,2.75l1,-5.84375c0.046875,-0.324219 -0.070312,-0.652344 -0.3125,-0.875l-4.21875,-4.125l5.84375,-0.875c0.320313,-0.042969 0.601563,-0.242187 0.75,-0.53125l2.625,-5.28125z" id="svg_1" fill="#ced4da"/>
  </g>
 </g>
</svg>