<svg width="12" height="11" viewBox="0 0 12 11" fill="none" xmlns="http://www.w3.org/2000/svg">
<path d="M3.65544 1.28752C4.61239 -0.429173 7.08201 -0.429172 8.03897 1.28752L11.3733 7.26892C12.3056 8.9415 11.0964 11 9.18149 11H2.51292C0.598019 11 -0.611211 8.9415 0.321156 7.26892L3.65544 1.28752Z" fill="#F2994A"/>
<path d="M10.5805 7.15553L8.48833 3.33458C8.04505 2.52501 7.09819 2.47651 6.89838 3.37761C6.71634 4.19849 6.58662 5.19673 6.33012 6.19461C6.05866 7.25068 7.54336 10.5294 8.63375 10.5294C10.3346 10.5294 11.4087 8.66797 10.5805 7.15553Z" fill="url(#paint0_linear)"/>
<path d="M0.960239 7.82876L1.96926 6.11762C2.15648 5.80013 2.54735 5.77354 2.63996 6.13031C2.7275 6.46753 2.78502 6.88537 2.89336 7.30936C3.01074 7.76872 2.33288 9.27469 1.85875 9.27469C1.07374 9.27469 0.578016 8.47695 0.960239 7.82876Z" fill="url(#paint1_linear)"/>
<defs>
<linearGradient id="paint0_linear" x1="8.35649" y1="3.6288" x2="6.78818" y2="10.5294" gradientUnits="userSpaceOnUse">
<stop stop-color="white" stop-opacity="0.05"/>
<stop offset="1" stop-color="white" stop-opacity="0"/>
</linearGradient>
<linearGradient id="paint1_linear" x1="1.98672" y1="6.3173" x2="2.61509" y2="9.29484" gradientUnits="userSpaceOnUse">
<stop stop-color="white" stop-opacity="0.05"/>
<stop offset="1" stop-color="white" stop-opacity="0"/>
</linearGradient>
</defs>
</svg>
